<?xml version="1.0" encoding="UTF-8"?>
<svg id="Capa_2" xmlns="http://www.w3.org/2000/svg" viewBox="0 0 384.87 384.87">
  <defs>
    <style>
      .cls-1 {
        fill: #f4f6f5;
      }

      .cls-2 {
        fill: #fbc161;
      }

      .cls-3 {
        fill: #1c3c74;
      }
    </style>
  </defs>
  <g id="fotos">
    <g>
      <rect class="cls-3" width="384.87" height="384.87" rx="49.1" ry="49.1"/>
      <g>
        <path class="cls-2" d="M183.3,242.42c-16.94-6.07-30.14-19.27-36.22-36.21l-1.01-2.81H60.4l.76,4.89c9.69,62.12,57.94,110.37,120.06,120.06l4.89.76v-85.68l-2.81-1.01Z"/>
        <path class="cls-1" d="M226.77,327.53h-8.47v-83.3l2.99-.93c17.8-5.46,32.28-19.17,38.72-36.66l1.02-2.77h68.25v8.47h-62.41c-7.41,17.66-22.09,31.6-40.1,38.06v77.13ZM222.54,247.36h-4.24s4.24,0,4.24,0Z"/>
        <polygon class="cls-1" points="62.9 134.78 54.43 134.78 54.43 55.76 140.35 55.76 140.35 64.23 62.9 64.23 62.9 134.78"/>
        <path class="cls-1" d="M177.64,60v33.23h-78.02v70.45h-37.88v8.47h83.3l.89-3.05c5.35-18.41,19.32-33.27,37.38-39.76l2.8-1.01V60h-8.47Z"/>
        <path class="cls-2" d="M226.77,93.23v-33.23h-8.47v67.54l2.99.92c19.41,5.96,34.37,21.16,40.03,40.64l.88,3.05h68.24v-78.92h-103.67Z"/>
      </g>
    </g>
  </g>
</svg>