<?xml version="1.0" encoding="UTF-8"?>
<svg version="1.1" xmlns="http://www.w3.org/2000/svg" width="21" height="18">
<path d="M0 0 C1.91635217 -0.05423638 3.83314925 -0.09289963 5.75 -0.125 C7.35101563 -0.15980469 7.35101563 -0.15980469 8.984375 -0.1953125 C11.96013863 -0.00258169 13.56214756 0.32574403 16 2 C18.0425215 6.51504753 18.58529525 11.10648393 19 16 C17.28310511 17.71689489 15.09121863 17.25303054 12.75 17.3125 C9.03464477 17.26913009 7.26784303 17.14212079 3.9375 15.375 C0.01782721 10.5702398 -0.24210796 6.05269908 0 0 Z " fill="#80383F" transform="translate(1,1)"/>
<path d="M0 0 C2.60795087 2.60795087 2.61500175 4.45102607 3.1875 8.0625 C3.45626953 9.68865234 3.45626953 9.68865234 3.73046875 11.34765625 C3.86388672 12.66056641 3.86388672 12.66056641 4 14 C2.26150372 15.73849628 -0.0786637 15.17216296 -2.4375 15.1875 C-3.42621094 15.20167969 -4.41492188 15.21585938 -5.43359375 15.23046875 C-8 15 -8 15 -10 13 C-8.35 13 -6.7 13 -5 13 C-5 10.36 -5 7.72 -5 5 C-5.99 5 -6.98 5 -8 5 C-8 4.01 -8 3.02 -8 2 C-5.36 2 -2.72 2 0 2 C0 1.34 0 0.68 0 0 Z " fill="#EAB554" transform="translate(16,3)"/>
<path d="M0 0 C0.33 0 0.66 0 1 0 C1.33 2.31 1.66 4.62 2 7 C2.99 7 3.98 7 5 7 C5 4.69 5 2.38 5 0 C5.33 0 5.66 0 6 0 C6.87890625 6.15234375 6.87890625 6.15234375 7 8 C5.26150372 9.73849628 2.9213363 9.17216296 0.5625 9.1875 C-0.42621094 9.20167969 -1.41492188 9.21585938 -2.43359375 9.23046875 C-5 9 -5 9 -7 7 C-4.69 7 -2.38 7 0 7 C0 4.69 0 2.38 0 0 Z " fill="#CFA78C" transform="translate(13,9)"/>
<path d="M0 0 C1.32 0 2.64 0 4 0 C4 2.64 4 5.28 4 8 C2.68 8.33 1.36 8.66 0 9 C0 6.03 0 3.06 0 0 Z " fill="#863D37" transform="translate(14,8)"/>
</svg>
