<?xml version="1.0" encoding="UTF-8" standalone="no"?>
<!-- Created with Inkscape (http://www.inkscape.org/) -->

<svg
   width="19.492096"
   height="21.000229"
   viewBox="0 0 5.1572836 5.5563105"
   version="1.1"
   id="svg1"
   xml:space="preserve"
   sodipodi:docname="punto_recarga_electrica.svg"
   inkscape:version="1.4 (86a8ad7, 2024-10-11)"
   xmlns:inkscape="http://www.inkscape.org/namespaces/inkscape"
   xmlns:sodipodi="http://sodipodi.sourceforge.net/DTD/sodipodi-0.dtd"
   xmlns="http://www.w3.org/2000/svg"
   xmlns:svg="http://www.w3.org/2000/svg"><sodipodi:namedview
     id="namedview1"
     pagecolor="#ffffff"
     bordercolor="#000000"
     borderopacity="0.25"
     inkscape:showpageshadow="2"
     inkscape:pageopacity="0.0"
     inkscape:pagecheckerboard="0"
     inkscape:deskcolor="#d1d1d1"
     inkscape:zoom="38.428153"
     inkscape:cx="9.7584707"
     inkscape:cy="10.500114"
     inkscape:window-width="1920"
     inkscape:window-height="1009"
     inkscape:window-x="-8"
     inkscape:window-y="-8"
     inkscape:window-maximized="1"
     inkscape:current-layer="svg1" /><defs
     id="defs1" /><g
     id="layer1"
     style="display:inline;opacity:1"
     transform="translate(-21.695833,-49.21244)"><path
       id="path210"
       style="fill:#3f3f3f;fill-opacity:1;stroke-width:0.474256;stroke-linecap:round;stroke-linejoin:round"
       d="m 22.467362,49.212499 c -0.134364,0 -0.242362,0.107998 -0.242362,0.242362 v 4.784721 h -0.359151 c -0.09423,0 -0.170016,0.0707 -0.170016,0.158647 v 0.37052 h 3.96875 v -0.37052 c 0,-0.08795 -0.07578,-0.158647 -0.170015,-0.158647 h -0.359151 v -2.060856 c 0.02957,-0.006 0.06008,-0.01196 0.09198,-0.01654 0.07671,-0.01101 0.155417,-0.01404 0.211356,-0.0078 0.05594,0.0063 0.0786,0.02249 0.07597,0.01964 -0.0021,-0.0023 0.02043,0.04548 0.01964,0.148312 -7.89e-4,0.10283 -0.0169,0.241008 -0.0155,0.386539 0.0014,0.145532 0.01638,0.313031 0.128674,0.457337 0.112294,0.144305 0.310135,0.220658 0.546737,0.220658 0.266985,0 0.480348,-0.172429 0.564823,-0.375171 0.08448,-0.202742 0.08823,-0.425391 0.07028,-0.640788 -0.0359,-0.430795 -0.176217,-0.841809 -0.176217,-0.841809 a 0.20566057,0.20566057 0 0 0 0,-5.16e-4 0.20566057,0.20566057 0 0 0 0,-5.17e-4 0.20566057,0.20566057 0 0 0 0,-5.17e-4 0.20566057,0.20566057 0 0 0 0,-5.17e-4 l -0.0894,-0.257865 c 0.239611,-0.196105 0.347349,-0.521615 0.258382,-0.829924 -0.0077,-0.02673 -0.03125,-0.04297 -0.05736,-0.04392 -0.0087,-3.2e-4 -0.01769,8.24e-4 -0.02635,0.0041 l -0.148312,0.05684 -0.19637,-0.522966 a 0.141111,0.141111 0 0 0 -0.145728,-0.09043 0.141111,0.141111 0 0 0 -0.03617,0.0088 0.141111,0.141111 0 0 0 -0.08165,0.181385 l 0.195337,0.523999 -0.501262,0.191719 -0.21394,-0.573091 a 0.141111,0.141111 0 0 0 -0.181384,-0.08372 0.141111,0.141111 0 0 0 -0.08423,0.181384 l 0.216524,0.575676 -0.162264,0.06201 c -0.04142,0.01582 -0.06226,0.06219 -0.04237,0.101803 0.155301,0.309434 0.494059,0.47888 0.829923,0.425297 l 0.07648,0.220142 c 0,0 0.125816,0.383251 0.156063,0.746207 0.01512,0.181478 2.67e-4,0.354153 -0.03927,0.449068 -0.03955,0.09491 -0.05563,0.12299 -0.185518,0.12299 -0.160273,1e-6 -0.197593,-0.03496 -0.220659,-0.0646 -0.02306,-0.02964 -0.04391,-0.09838 -0.04496,-0.206706 -10e-4,-0.108317 0.01444,-0.242425 0.0155,-0.379305 0.0011,-0.13688 -0.0041,-0.29768 -0.128675,-0.431498 -0.09619,-0.103302 -0.219783,-0.13581 -0.330212,-0.148312 -0.110429,-0.0125 -0.217922,-0.0043 -0.31626,0.0098 -0.01149,0.0016 -0.02233,0.0033 -0.03359,0.0052 V 49.4548 c 0,-0.134364 -0.107999,-0.242362 -0.242363,-0.242362 z m 1.853634,0.834058 c 0.0594,-0.0055 0.118533,0.01294 0.164331,0.05116 0.09559,0.07913 0.108782,0.220833 0.02946,0.31626 l -1.017509,1.220597 h 0.843359 c 0.178713,-1.37e-4 0.285863,0.198518 0.187586,0.347783 l -1.058334,1.588016 c -0.06861,0.102857 -0.207505,0.130819 -0.310575,0.06253 -0.102857,-0.06861 -0.13082,-0.207505 -0.06253,-0.310575 l 0.826307,-1.240235 H 23.01875 c -0.189491,-6.84e-4 -0.292873,-0.221415 -0.172083,-0.367419 l 1.3224,-1.5875 c 0.03792,-0.04599 0.09259,-0.07498 0.151929,-0.08062 z" /></g><style
     id="style1">/* khmer */
@font-face {
  font-family: 'Dangrek';
  font-style: normal;
  font-weight: 400;
  font-display: block;
  src: url(https://design.penpot.app/internal/gfonts/font/dangrek/v31/LYjCdG30nEgoH8E2sC9gqGIu.woff2) format('woff2');
  unicode-range: U+1780-17FF, U+19E0-19FF, U+200C-200D, U+25CC;
}
/* latin */
@font-face {
  font-family: 'Dangrek';
  font-style: normal;
  font-weight: 400;
  font-display: block;
  src: url(https://design.penpot.app/internal/gfonts/font/dangrek/v31/LYjCdG30nEgoH8E2sCRgqA.woff2) format('woff2');
  unicode-range: U+0000-00FF, U+0131, U+0152-0153, U+02BB-02BC, U+02C6, U+02DA, U+02DC, U+0304, U+0308, U+0329, U+2000-206F, U+20AC, U+2122, U+2191, U+2193, U+2212, U+2215, U+FEFF, U+FFFD;
}
</style></svg>
